<svg width="40" height="40" viewBox="0 0 40 40" fill="none" xmlns="http://www.w3.org/2000/svg">
<path fill-rule="evenodd" clip-rule="evenodd" d="M16.3184 14.1358H24.4202V12.7855H16.3184V14.1358Z" fill="#0089FF" stroke="#0089FF" stroke-width="0.5" stroke-linecap="round"/>
<path fill-rule="evenodd" clip-rule="evenodd" d="M9.56836 18.1867H16.3199V16.8364H9.56836V18.1867Z" fill="#0089FF" stroke="#0089FF" stroke-width="0.5" stroke-linecap="round"/>
<path fill-rule="evenodd" clip-rule="evenodd" d="M19.0195 18.1867H24.4208V16.8364H19.0195V18.1867Z" fill="#0089FF" stroke="#0089FF" stroke-width="0.5" stroke-linecap="round"/>
<path fill-rule="evenodd" clip-rule="evenodd" d="M9.56836 22.2376H21.7211V20.8873H9.56836V22.2376Z" fill="#0089FF" stroke="#0089FF" stroke-width="0.5" stroke-linecap="round"/>
<path fill-rule="evenodd" clip-rule="evenodd" d="M36.5734 28.314C36.5734 24.263 33.1977 20.8873 29.1467 20.8873C25.0958 20.8873 21.72 24.263 21.72 28.314C21.72 29.5292 21.9901 30.3394 22.5302 31.6897H5.51632V12.7854H13.6182V4.68356H28.4716V12.7854H29.8219V4.68356C29.8219 3.87338 29.2818 3.33325 28.4716 3.33325H12.2679C9.16216 6.03387 6.86663 8.32939 4.16602 11.4351V31.6897C4.16602 32.4999 4.16602 33.04 5.51632 33.04H23.4754C24.8257 34.3904 26.8512 35.7407 29.1467 35.7407C33.1977 35.7407 36.5734 32.3649 36.5734 28.314ZM6.05645 11.4351L12.2679 5.22368V11.4351H6.05645ZM35.2231 28.314C35.2231 31.6897 32.5225 34.3904 29.1467 34.3904C25.771 34.3904 23.0703 31.6897 23.0703 28.314C23.0703 24.9382 25.771 22.2376 29.1467 22.2376C32.5225 22.2376 35.2231 24.9382 35.2231 28.314Z" fill="#0089FF" stroke="#0089FF" stroke-width="0.5" stroke-linecap="round"/>
<path fill-rule="evenodd" clip-rule="evenodd" d="M28.4712 28.8541L26.3107 26.6936L25.2305 27.6388L28.4712 30.8795L33.0623 26.2885L31.982 25.3433L28.4712 28.8541Z" fill="#0089FF" stroke="#0089FF" stroke-width="0.5" stroke-linecap="round"/>
<path fill-rule="evenodd" clip-rule="evenodd" d="M9.56836 26.2885H17.6702V24.9382H9.56836V26.2885Z" fill="#0089FF" stroke="#0089FF" stroke-width="0.5" stroke-linecap="round"/>
<path fill-rule="evenodd" clip-rule="evenodd" d="M28.4717 18.1866H29.822V15.486H28.4717V18.1866Z" fill="#0089FF" stroke="#0089FF" stroke-width="0.5" stroke-linecap="round"/>
</svg>
