<svg width="14" height="16" viewBox="0 0 14 16" fill="none" xmlns="http://www.w3.org/2000/svg">
<path d="M13.4434 5.79206C13.9343 6.01352 13.7763 6.74782 13.2378 6.74783L2.86007 6.74783C2.65725 6.74783 2.47453 6.62531 2.39752 6.43768L0.0389348 0.691431C-0.132777 0.273086 0.29491 -0.14016 0.707113 0.0458136L13.4434 5.79206Z" fill="white"/>
<path d="M13.4434 5.79206C13.9343 6.01352 13.7763 6.74782 13.2378 6.74783L2.86007 6.74783" fill="white"/>
<path d="M13.4434 9.26593C13.9343 9.04447 13.7763 8.31017 13.2378 8.31017L2.86007 8.31017C2.65725 8.31017 2.47453 8.43268 2.39752 8.62031L0.0389348 14.3666C-0.132777 14.7849 0.29491 15.1982 0.707113 15.0122L13.4434 9.26593Z" fill="white"/>
<path d="M13.4434 9.26593C13.9343 9.04447 13.7763 8.31017 13.2378 8.31017L2.86007 8.31017" fill="white"/>
</svg>
