<svg width="56" height="56" viewBox="0 0 56 56" fill="none" xmlns="http://www.w3.org/2000/svg">
<path d="M36.6146 2.15393H23.6915C21.3126 2.15393 19.3838 4.12556 19.3838 6.55735V19.7676C19.3838 24.6312 23.2413 28.5744 27.9992 28.5744C32.757 28.5744 36.6146 24.6312 36.6146 19.7676V10.9608" stroke="#4F4F4F" stroke-width="3" stroke-linecap="round"/>
<path d="M10.7687 27.4258C6.01086 27.4258 2.15332 31.369 2.15332 36.2326V49.4429C2.15332 51.8747 4.08209 53.8463 6.46101 53.8463H49.5379C51.9169 53.8463 53.8456 51.8747 53.8456 49.4429V36.2326C53.8456 31.369 49.9881 27.4258 45.2302 27.4258" stroke="#4F4F4F" stroke-width="3" stroke-linecap="round"/>
<path d="M19.3838 34.0786C24.6553 37.4472 31.343 37.4472 36.6146 34.0786" stroke="#4F4F4F" stroke-width="3" stroke-linecap="round"/>
</svg>
