<svg width="24" height="17" viewBox="0 0 24 17" fill="none" xmlns="http://www.w3.org/2000/svg">
<path fill-rule="evenodd" clip-rule="evenodd" d="M0 1C0 0.447715 0.447715 0 1 0H23C23.5523 0 24 0.447715 24 1C24 1.55228 23.5523 2 23 2H1C0.447715 2 0 1.55228 0 1ZM0 8.5C0 7.94772 0.447715 7.5 1 7.5H11C11.5523 7.5 12 7.94772 12 8.5C12 9.05229 11.5523 9.5 11 9.5H1C0.447715 9.5 0 9.05229 0 8.5ZM0 16C0 15.4477 0.447715 15 1 15H18C18.5523 15 19 15.4477 19 16C19 16.5523 18.5523 17 18 17H1C0.447715 17 0 16.5523 0 16Z" fill="white"/>
</svg>
