<svg width="50" height="39" viewBox="0 0 50 39" fill="none" xmlns="http://www.w3.org/2000/svg">
<path d="M20.9936 2.74427L19.2099 0C6.86067 8.30141 0 18.3866 0 26.688C0 34.715 5.90017 38.4884 10.9085 38.4884C17.2203 38.4884 21.6797 33.137 21.6797 27.5113C21.6797 22.7774 18.661 18.7296 14.6132 17.2203C13.4469 16.8086 12.3492 16.4656 12.3492 14.476C12.3492 11.9376 14.2016 8.1642 20.9936 2.74427ZM48.2305 2.74427L46.4467 0C34.2347 8.30141 27.2368 18.3866 27.2368 26.688C27.2368 34.715 33.2742 38.4884 38.2825 38.4884C44.6629 38.4884 49.191 33.137 49.191 27.5113C49.191 22.7774 46.1037 18.7296 41.9187 17.2203C40.7524 16.8086 39.7233 16.4656 39.7233 14.476C39.7233 11.9376 41.6442 8.1642 48.2305 2.74427Z" fill="#F2C94C"/>
</svg>
