<svg width="56" height="56" viewBox="0 0 56 56" fill="none" xmlns="http://www.w3.org/2000/svg">
<path fill-rule="evenodd" clip-rule="evenodd" d="M17.8841 6.55735C17.8841 3.32839 20.4535 0.653931 23.6918 0.653931H36.6148C37.4433 0.653931 38.1148 1.3255 38.1148 2.15393C38.1148 2.98236 37.4433 3.65393 36.6148 3.65393H23.6918C22.1722 3.65393 20.8841 4.92274 20.8841 6.55735V19.7676C20.8841 23.834 24.101 27.0744 27.9995 27.0744C31.898 27.0744 35.1148 23.834 35.1148 19.7676V10.9608C35.1148 10.1323 35.7864 9.46077 36.6148 9.46077C37.4433 9.46077 38.1148 10.1323 38.1148 10.9608V19.7676C38.1148 25.4284 33.6166 30.0744 27.9995 30.0744C22.3823 30.0744 17.8841 25.4284 17.8841 19.7676V6.55735Z" fill="#4F4F4F"/>
<path fill-rule="evenodd" clip-rule="evenodd" d="M0.65332 36.2326C0.65332 30.5718 5.15152 25.9257 10.7687 25.9257C11.5971 25.9257 12.2687 26.5973 12.2687 27.4257C12.2687 28.2542 11.5971 28.9257 10.7687 28.9257C6.87019 28.9257 3.65332 32.1662 3.65332 36.2326V49.4428C3.65332 51.0774 4.94143 52.3463 6.46101 52.3463H49.5379C51.0575 52.3463 52.3456 51.0774 52.3456 49.4428V36.2326C52.3456 32.1662 49.1287 28.9257 45.2302 28.9257C44.4018 28.9257 43.7302 28.2542 43.7302 27.4257C43.7302 26.5973 44.4018 25.9257 45.2302 25.9257C50.8474 25.9257 55.3456 30.5718 55.3456 36.2326V49.4428C55.3456 52.6718 52.7762 55.3463 49.5379 55.3463H6.46101C3.22275 55.3463 0.65332 52.6718 0.65332 49.4428V36.2326Z" fill="#4F4F4F"/>
<path fill-rule="evenodd" clip-rule="evenodd" d="M18.1201 33.271C18.5662 32.5729 19.4937 32.3686 20.1918 32.8147C24.9708 35.8686 31.0281 35.8686 35.8071 32.8147C36.5052 32.3686 37.4327 32.5729 37.8788 33.271C38.3249 33.969 38.1206 34.8966 37.4225 35.3426C31.6585 39.0259 24.3404 39.0259 18.5764 35.3426C17.8783 34.8966 17.674 33.969 18.1201 33.271Z" fill="#4F4F4F"/>
</svg>
