<svg width="20" height="22" viewBox="0 0 20 22" fill="none" xmlns="http://www.w3.org/2000/svg">
<path fill-rule="evenodd" clip-rule="evenodd" d="M5.99787 0.25C6.41209 0.25 6.74787 0.585786 6.74787 1V2.25003H13.2516V1C13.2516 0.585786 13.5874 0.25 14.0016 0.25C14.4158 0.25 14.7516 0.585786 14.7516 1V2.25003H17C18.5188 2.25003 19.75 3.48125 19.75 5.00003V19C19.75 20.5188 18.5188 21.75 17 21.75H3C1.48122 21.75 0.25 20.5188 0.25 19V5.00003C0.25 3.48125 1.48122 2.25003 3 2.25003H5.24787V1C5.24787 0.585786 5.58366 0.25 5.99787 0.25ZM5.24787 3.75003H3C2.30964 3.75003 1.75 4.30967 1.75 5.00003V8.25011H18.25V5.00003C18.25 4.30967 17.6904 3.75003 17 3.75003H14.7516V5C14.7516 5.41421 14.4158 5.75 14.0016 5.75C13.5874 5.75 13.2516 5.41421 13.2516 5V3.75003H6.74787V5C6.74787 5.41421 6.41209 5.75 5.99787 5.75C5.58366 5.75 5.24787 5.41421 5.24787 5V3.75003ZM18.25 9.75011H1.75V19C1.75 19.6904 2.30964 20.25 3 20.25H17C17.6904 20.25 18.25 19.6904 18.25 19V9.75011Z" fill="#222244"/>
</svg>
