<svg width="10" height="10" viewBox="0 0 10 10" fill="none" xmlns="http://www.w3.org/2000/svg">
<path fill-rule="evenodd" clip-rule="evenodd" d="M1.08424 1.08415C1.47477 0.693629 2.10793 0.693629 2.49846 1.08415L8.91512 7.50082C9.30565 7.89135 9.30565 8.52451 8.91512 8.91503C8.5246 9.30556 7.89143 9.30556 7.50091 8.91503L1.08424 2.49837C0.69372 2.10784 0.69372 1.47468 1.08424 1.08415Z" fill="white"/>
<path fill-rule="evenodd" clip-rule="evenodd" d="M1.08424 8.91585C0.69372 8.52532 0.69372 7.89216 1.08424 7.50163L7.50091 1.08497C7.89143 0.694446 8.5246 0.694446 8.91512 1.08497C9.30565 1.47549 9.30565 2.10866 8.91512 2.49918L2.49846 8.91585C2.10793 9.30637 1.47477 9.30637 1.08424 8.91585Z" fill="white"/>
</svg>
