<svg width="24" height="24" viewBox="0 0 24 24" fill="none" xmlns="http://www.w3.org/2000/svg">
<path fill-rule="evenodd" clip-rule="evenodd" d="M0.792893 0.792893C1.18342 0.402369 1.81658 0.402369 2.20711 0.792893L10.5196 9.10539C10.9101 9.49592 10.9101 10.1291 10.5196 10.5196C10.1291 10.9101 9.49592 10.9101 9.10539 10.5196L0.792893 2.20711C0.402369 1.81658 0.402369 1.18342 0.792893 0.792893ZM23.2071 0.792893C23.5976 1.18342 23.5976 1.81658 23.2071 2.20711L14.8946 10.5196C14.5041 10.9101 13.8709 10.9101 13.4804 10.5196C13.0899 10.1291 13.0899 9.49592 13.4804 9.10539L21.7929 0.792893C22.1834 0.402369 22.8166 0.402369 23.2071 0.792893ZM10.5196 13.4804C10.9101 13.8709 10.9101 14.5041 10.5196 14.8946L2.20711 23.2071C1.81658 23.5976 1.18342 23.5976 0.792893 23.2071C0.402369 22.8166 0.402369 22.1834 0.792893 21.7929L9.10539 13.4804C9.49592 13.0899 10.1291 13.0899 10.5196 13.4804ZM13.4804 13.4804C13.8709 13.0899 14.5041 13.0899 14.8946 13.4804L23.2071 21.7929C23.5976 22.1834 23.5976 22.8166 23.2071 23.2071C22.8166 23.5976 22.1834 23.5976 21.7929 23.2071L13.4804 14.8946C13.0899 14.5041 13.0899 13.8709 13.4804 13.4804Z" fill="white"/>
</svg>
