<svg width="185" height="36" viewBox="0 0 185 36" fill="none" xmlns="http://www.w3.org/2000/svg">
<path d="M179.456 10.1112C180.412 10.0939 181.362 10.2846 182.237 10.6702C183.055 11.0463 183.778 11.601 184.352 12.2935L182.709 14.1525C182.271 13.713 181.755 13.359 181.187 13.1085C180.624 12.8636 180.016 12.7375 179.402 12.738C178.92 12.7196 178.442 12.8337 178.021 13.0681C177.661 13.2798 177.451 13.6752 177.475 14.0919C177.464 14.4567 177.636 14.803 177.933 15.0147C178.383 15.3201 178.866 15.5711 179.375 15.7623L180.722 16.3079C181.79 16.7095 182.777 17.303 183.632 18.0591C184.274 18.7272 184.608 19.6329 184.554 20.558C184.569 21.2068 184.426 21.8494 184.137 22.4305C183.864 22.9595 183.475 23.42 182.999 23.7776C182.498 24.153 181.931 24.4317 181.328 24.5993C180.671 24.7857 179.991 24.8787 179.307 24.8755C177.08 24.9279 174.962 23.9114 173.609 22.1408L175.313 20.2145C175.852 20.789 176.469 21.2854 177.145 21.6896C177.807 22.0683 178.559 22.2614 179.321 22.2486C179.874 22.263 180.421 22.1281 180.904 21.8579C181.338 21.6218 181.599 21.1592 181.577 20.6658C181.597 20.243 181.389 19.8419 181.032 19.615C180.585 19.3456 180.114 19.1201 179.624 18.9415L178.183 18.3353C177.652 18.1267 177.137 17.8814 176.64 17.6011C176.217 17.3642 175.83 17.0695 175.488 16.7255C174.802 16.0678 174.425 15.1503 174.451 14.1997C174.424 13.0218 174.96 11.9016 175.893 11.1821C176.366 10.822 176.903 10.5546 177.475 10.3941C178.118 10.2034 178.785 10.1081 179.456 10.1112Z" fill="white"/>
<path d="M172.431 18.6315C172.443 19.5167 172.28 20.3956 171.952 21.2179C171.656 21.9528 171.216 22.6213 170.659 23.1847C170.103 23.7377 169.434 24.1649 168.699 24.4375C167.122 25.0138 165.393 25.0138 163.816 24.4375C163.083 24.1602 162.415 23.7335 161.856 23.1847C161.291 22.6245 160.847 21.9554 160.549 21.2179C160.223 20.3951 160.063 19.5162 160.078 18.6315V10.4343H163.102V18.8672C163.057 19.749 163.393 20.6075 164.025 21.2246C164.63 21.7956 165.436 22.1054 166.267 22.0868C167.125 22.1209 167.956 21.7901 168.556 21.1763C169.156 20.5626 169.467 19.7235 169.413 18.8672V10.4343H172.431V18.6315Z" fill="white"/>
<path d="M157.612 24.552H154.581V2.99829H157.612V24.552Z" fill="white"/>
<path fill-rule="evenodd" clip-rule="evenodd" d="M148.667 10.6701C147.789 10.2919 146.842 10.1014 145.886 10.1111C144.905 10.0992 143.934 10.3063 143.043 10.7173C142.21 11.1027 141.494 11.7024 140.969 12.455V10.4344H138.396V29.7317H141.198V22.8547C141.739 23.5105 142.433 24.0238 143.218 24.35C144.072 24.7031 144.989 24.8796 145.913 24.8686C147.79 24.8862 149.589 24.1196 150.877 22.7537C151.506 22.0744 151.996 21.2779 152.318 20.4097C152.671 19.4712 152.847 18.4755 152.837 17.473C152.847 16.4771 152.671 15.488 152.318 14.5565C151.991 13.6949 151.501 12.9038 150.877 12.226C150.256 11.5597 149.504 11.0298 148.667 10.6701ZM143.852 13.1488C144.346 12.968 144.868 12.8746 145.394 12.8726H145.401C145.994 12.8601 146.584 12.9725 147.132 13.2027C147.639 13.4267 148.097 13.7496 148.479 14.1524C148.871 14.5783 149.175 15.0772 149.375 15.6207C149.816 16.837 149.816 18.1696 149.375 19.3859C149.169 19.9283 148.855 20.4233 148.452 20.8407C148.06 21.2434 147.59 21.5619 147.071 21.777C146.538 21.9986 145.965 22.1108 145.387 22.107C144.852 22.1066 144.321 22.0131 143.818 21.8309C143.314 21.6452 142.856 21.3561 142.471 20.9822C142.053 20.5765 141.725 20.0878 141.508 19.5475C141.254 18.8883 141.133 18.1857 141.151 17.4797C141.133 16.7697 141.261 16.0636 141.528 15.4052C141.751 14.8687 142.084 14.3846 142.504 13.984C142.892 13.6174 143.351 13.3332 143.852 13.1488Z" fill="white"/>
<path d="M133.418 10.4343C133.611 10.4226 133.805 10.4226 133.998 10.4343C134.143 10.4525 134.287 10.4818 134.429 10.5218V12.4751H133.62C133.056 12.4741 132.496 12.5674 131.963 12.7513C131.448 12.925 130.968 13.1922 130.549 13.5393C130.132 13.8912 129.795 14.3273 129.559 14.8191C129.298 15.3726 129.169 15.9789 129.182 16.5905V24.5519H126.966V10.5488H129.04V12.5694C129.542 11.8915 130.204 11.3478 130.967 10.9866C131.732 10.6201 132.57 10.4313 133.418 10.4343Z" fill="white"/>
<path fill-rule="evenodd" clip-rule="evenodd" d="M120.91 10.6903C120.116 10.3813 119.27 10.2259 118.418 10.2323C117.449 10.2152 116.487 10.4034 115.596 10.7846C114.75 11.1958 113.991 11.7651 113.36 12.4617C112.701 13.13 112.182 13.9221 111.831 14.7922C111.463 15.7014 111.278 16.6741 111.285 17.6548C111.263 19.5999 112.025 21.4721 113.4 22.8479C114.071 23.5167 114.868 24.0456 115.744 24.4038C116.676 24.7832 117.675 24.9732 118.681 24.9629C119.768 24.9724 120.845 24.7425 121.833 24.2893C122.762 23.8623 123.598 23.2557 124.292 22.5044L122.998 21.0091C122.441 21.557 121.8 22.0118 121.099 22.3562C120.354 22.7139 119.535 22.8916 118.708 22.8749C118.052 22.8807 117.401 22.7736 116.782 22.5583C115.602 22.1613 114.631 21.307 114.087 20.1874C113.799 19.5861 113.619 18.9385 113.555 18.2745H124.595C124.648 18.0529 124.687 17.8278 124.709 17.6009C124.751 17.2613 124.771 16.9193 124.77 16.5771C124.78 15.6952 124.613 14.8203 124.278 14.0042C123.973 13.2452 123.514 12.5574 122.931 11.9835C122.349 11.4237 121.662 10.9842 120.91 10.6903ZM116.674 12.5425C117.214 12.3481 117.784 12.25 118.358 12.2529L118.364 12.2462C118.896 12.2447 119.424 12.3312 119.927 12.5021C120.414 12.6659 120.861 12.9298 121.24 13.2767C121.628 13.6376 121.94 14.0728 122.156 14.5565C122.396 15.0991 122.513 15.6878 122.5 16.2808H113.629C113.738 15.7071 113.938 15.1545 114.222 14.644C114.489 14.1593 114.84 13.726 115.259 13.3643C115.676 13.006 116.156 12.7275 116.674 12.5425Z" fill="white"/>
<path fill-rule="evenodd" clip-rule="evenodd" d="M109.177 4.06235C108.873 3.75402 108.458 3.58155 108.025 3.58413C107.586 3.57452 107.161 3.742 106.847 4.04888C106.527 4.34343 106.349 4.75974 106.355 5.19392C106.345 5.63078 106.524 6.05061 106.847 6.3457C107.164 6.64757 107.587 6.81214 108.025 6.80372C108.455 6.80867 108.868 6.64408 109.177 6.3457C109.488 6.04723 109.664 5.63494 109.664 5.20403C109.664 4.77311 109.488 4.36083 109.177 4.06235ZM106.901 24.5518H109.117V10.5487H106.901V24.5518Z" fill="white"/>
<path d="M103.768 24.5517H101.552V2.99805H103.768V24.5517Z" fill="white"/>
<path fill-rule="evenodd" clip-rule="evenodd" d="M95.2345 10.7912C94.3563 10.413 93.4088 10.2225 92.4527 10.2322C91.395 10.2166 90.3481 10.4472 89.3948 10.9057C88.5002 11.3359 87.7321 11.9903 87.1653 12.8052V10.5488H85.0908V29.7315H87.3067V22.5178C87.8822 23.2794 88.6459 23.8783 89.5227 24.2556C90.4465 24.6685 91.4476 24.8797 92.4594 24.8752C94.3365 24.8928 96.1358 24.1262 97.4235 22.7603C98.0557 22.0857 98.55 21.294 98.8784 20.4298C99.2298 19.5073 99.4057 18.5273 99.397 17.5402C99.4064 16.5575 99.2305 15.5817 98.8784 14.6642C98.5487 13.8077 98.0596 13.0214 97.437 12.3471C96.8185 11.6816 96.0685 11.1518 95.2345 10.7912ZM90.3647 12.5559C90.9431 12.3555 91.5509 12.253 92.1631 12.2528V12.273C92.8449 12.2617 93.5216 12.3924 94.15 12.657C94.7447 12.9113 95.2794 13.2876 95.7194 13.7616C96.1627 14.2491 96.51 14.8158 96.7432 15.432C97.2434 16.7976 97.2434 18.2963 96.7432 19.6619C96.5093 20.2808 96.1569 20.8482 95.706 21.3323C95.2646 21.8015 94.73 22.1731 94.1366 22.4235C93.5124 22.6874 92.8407 22.8204 92.1631 22.8141C91.5509 22.814 90.9431 22.7115 90.3647 22.511C89.7798 22.31 89.2447 21.9862 88.7953 21.5613C88.3091 21.0935 87.93 20.5259 87.6839 19.8977C87.3895 19.138 87.2476 18.3278 87.2663 17.5133C87.2456 16.703 87.3876 15.8968 87.6839 15.1424C87.9345 14.5243 88.3133 13.9665 88.7953 13.5056C89.2447 13.0808 89.7798 12.757 90.3647 12.5559Z" fill="white"/>
<path fill-rule="evenodd" clip-rule="evenodd" d="M78.7593 10.7912C77.8812 10.413 76.9337 10.2225 75.9776 10.2322C74.9198 10.2166 73.8729 10.4472 72.9196 10.9057C72.025 11.3359 71.257 11.9903 70.6902 12.8052V10.5488H68.6156V29.7315H70.8316V22.5178C71.4071 23.2794 72.1707 23.8783 73.0476 24.2556C73.9714 24.6685 74.9725 24.8797 75.9843 24.8752C77.8614 24.8928 79.6607 24.1262 80.9484 22.7603C81.5806 22.0857 82.0748 21.294 82.4033 20.4298C82.7547 19.5073 82.9306 18.5273 82.9219 17.5402C82.9313 16.5575 82.7553 15.5817 82.4033 14.6642C82.0735 13.8077 81.5844 13.0214 80.9619 12.3471C80.3433 11.6816 79.5933 11.1518 78.7593 10.7912ZM73.8896 12.5559C74.468 12.3555 75.0758 12.253 75.688 12.2528L75.6947 12.273C76.3765 12.2617 77.0532 12.3924 77.6817 12.657C78.2764 12.9113 78.811 13.2876 79.2511 13.7616C79.6943 14.2491 80.0417 14.8158 80.2749 15.432C80.7751 16.7976 80.7751 18.2963 80.2749 19.6619C80.0409 20.2808 79.6886 20.8482 79.2376 21.3323C78.7963 21.8015 78.2617 22.1731 77.6682 22.4235C77.0441 22.6874 76.3724 22.8204 75.6947 22.8141C75.0826 22.814 74.4747 22.7115 73.8963 22.511C73.3115 22.31 72.7764 21.9862 72.327 21.5613C71.8383 21.0942 71.4569 20.5265 71.2089 19.8977C70.9144 19.138 70.7725 18.3278 70.7913 17.5133C70.7705 16.703 70.9125 15.8968 71.2089 15.1424C71.4594 14.5243 71.8382 13.9665 72.3202 13.5056C72.7697 13.0808 73.3047 12.757 73.8896 12.5559Z" fill="white"/>
<path d="M65.6454 18.975C65.658 19.8112 65.507 20.6418 65.2008 21.42C64.654 22.8183 63.5404 23.9196 62.1362 24.451C60.6715 25.0063 59.0543 25.0063 57.5897 24.451C56.8978 24.1856 56.2658 23.7849 55.7307 23.2722C55.1916 22.7491 54.7692 22.1179 54.4913 21.42C54.1851 20.6418 54.0341 19.8112 54.0468 18.975V10.5488H56.2358V19.1164C56.2276 19.6492 56.3261 20.1782 56.5255 20.6723C56.8739 21.5469 57.5725 22.2357 58.4518 22.5717C58.903 22.7452 59.3829 22.832 59.8663 22.8277C60.3431 22.8323 60.8164 22.7454 61.2605 22.5717C61.6845 22.4042 62.0713 22.1547 62.3988 21.8376C62.733 21.5081 62.9925 21.1107 63.16 20.6723C63.3499 20.1759 63.4436 19.6479 63.4361 19.1164V10.5488H65.6521L65.6454 18.975Z" fill="white"/>
<path d="M47.1024 10.232C48.0364 10.2123 48.9611 10.4203 49.7966 10.8382C50.5595 11.2372 51.2351 11.7845 51.7836 12.448L50.4365 13.7951C49.9976 13.3172 49.4689 12.9304 48.8806 12.6568C48.295 12.3809 47.6555 12.2382 47.0081 12.2392C46.4152 12.2174 45.8292 12.3721 45.3242 12.6837C44.8822 12.9675 44.6253 13.4657 44.6507 13.9904C44.6325 14.4369 44.8369 14.8632 45.1963 15.1287C45.7347 15.4984 46.3159 15.8015 46.9273 16.0313L48.2205 16.5769C49.2602 16.9714 50.2172 17.5561 51.0427 18.3012C51.6701 18.9458 52.0039 19.8205 51.9655 20.7192C52.0074 21.9296 51.4475 23.0822 50.4702 23.7974C49.9941 24.1497 49.4577 24.4122 48.8873 24.5719C48.2875 24.7445 47.666 24.8307 47.0418 24.8279C45.9066 24.8703 44.7809 24.6074 43.7818 24.0668C42.916 23.5766 42.1542 22.9223 41.5389 22.1404L42.9803 20.6721C43.5069 21.2687 44.1092 21.7941 44.7719 22.2347C45.4427 22.6567 46.2226 22.8722 47.0149 22.8544C47.681 22.8719 48.3373 22.6914 48.9008 22.3357C49.4121 22.0263 49.7161 21.4647 49.6956 20.8674C49.7259 20.3307 49.4696 19.8181 49.0221 19.5203C48.4686 19.1719 47.8847 18.8743 47.2775 18.6312L45.8968 18.0587C45.3804 17.8297 44.9044 17.6052 44.4688 17.3851C44.0618 17.1645 43.6877 16.8879 43.3575 16.5634C43.0686 16.264 42.8399 15.9118 42.6839 15.5261C42.5117 15.0984 42.4292 14.6399 42.4414 14.179C42.4308 13.5956 42.5601 13.0182 42.8186 12.4951C43.0392 12.0072 43.3687 11.5763 43.7818 11.2356C44.2363 10.8987 44.7472 10.6456 45.2906 10.4879C45.8788 10.3148 46.4892 10.2285 47.1024 10.232Z" fill="white"/>
<path d="M18.1868 35.0326H18.1464C13.9906 35.0326 11.4109 32.4327 11.4109 28.297C11.4109 27.5531 12.014 26.9499 12.758 26.9499C13.502 26.9499 14.1051 27.5531 14.1051 28.297C14.1051 30.9913 15.4522 32.3384 18.1464 32.3384C19.253 32.4023 20.3421 32.0408 21.1909 31.328C21.9086 30.4889 22.2604 29.3973 22.1675 28.297V22.9086C22.1675 19.1887 25.1831 16.1731 28.9031 16.1731H29.5766C30.3206 16.1731 30.9237 16.7762 30.9237 17.5202C30.9237 18.2642 30.3206 18.8673 29.5766 18.8673H28.9031C26.6711 18.8673 24.8618 20.6767 24.8618 22.9086V28.297C24.9635 30.1183 24.3162 31.902 23.0701 33.2342C21.7466 34.4597 19.9891 35.107 18.1868 35.0326Z" fill="white"/>
<path d="M28.9635 24.2555H28.876C28.132 24.2555 27.5289 23.6524 27.5289 22.9084C27.5289 22.1644 28.132 21.5613 28.876 21.5613H28.9635C32.3717 21.5613 33.5909 19.379 33.5976 17.5199C33.622 16.4798 33.229 15.4732 32.5064 14.7247C31.5396 13.8523 30.2636 13.4036 28.9635 13.4786H23.5145C19.7946 13.4786 16.779 10.463 16.779 6.7431C16.779 5.99912 17.3821 5.396 18.1261 5.396C18.8701 5.396 19.4732 5.99912 19.4732 6.7431C19.4732 8.97506 21.2825 10.7844 23.5145 10.7844H28.9635C30.9778 10.6971 32.9422 11.4256 34.4126 12.8051C35.6456 14.0613 36.3226 15.76 36.2918 17.5199C36.312 20.7665 34.0152 24.2555 28.9635 24.2555Z" fill="white"/>
<path d="M7.32927 18.8672H6.73654C5.99255 18.8672 5.38943 18.2641 5.38943 17.5201C5.38943 16.7761 5.99255 16.173 6.73654 16.173H7.32253C9.55449 16.173 11.3638 14.3636 11.3638 12.1317V7.32926C11.2672 5.31352 11.997 3.34558 13.3845 1.88022C14.6408 0.647251 16.3394 -0.029781 18.0994 0.00100588C21.3459 0.00100588 24.8349 2.31129 24.8349 7.32252C24.8349 8.06651 24.2318 8.66963 23.4878 8.66963C22.7438 8.66963 22.1407 8.06651 22.1407 7.32252C22.1407 3.91435 19.9584 2.70195 18.0994 2.69522C17.0621 2.68673 16.0613 3.0774 15.3041 3.78637C14.4346 4.75184 13.9882 6.02548 14.0648 7.32252V12.1317C14.0648 15.8516 11.0492 18.8672 7.32927 18.8672Z" fill="white"/>
<path d="M18.1194 29.6439C17.3754 29.6439 16.7723 29.0408 16.7723 28.2968C16.7723 26.0648 14.9629 24.2555 12.731 24.2555H7.34256C5.32682 24.3521 3.35887 23.6224 1.89351 22.2348C0.654967 20.9812 -0.0271418 19.282 0.000827435 17.52C0.000827435 14.2802 2.31111 10.7844 7.32908 10.7844C8.07307 10.7844 8.67619 11.3875 8.67619 12.1315C8.67619 12.8755 8.07307 13.4786 7.32908 13.4786C3.92091 13.4786 2.69504 15.6609 2.69504 17.52C2.66989 18.5602 3.06294 19.5671 3.7862 20.3152C4.75305 21.1875 6.02902 21.6363 7.32908 21.5613H12.7175C16.4374 21.5613 19.453 24.5769 19.453 28.2968C19.4531 29.0356 18.8581 29.6365 18.1194 29.6439Z" fill="white"/>
</svg>
