<svg width="72" height="24" viewBox="0 0 72 24" fill="none" xmlns="http://www.w3.org/2000/svg">
<path fill-rule="evenodd" clip-rule="evenodd" d="M2.3118 10.6284L7.2174 19.125L9.2622 15.5832C9.38616 15.3682 9.56456 15.1897 9.77943 15.0656C9.99431 14.9416 10.2381 14.8763 10.4862 14.8764H14.5758L10.0782 22.6668C9.9542 22.8817 9.77579 23.0601 9.56093 23.1842C9.34606 23.3083 9.10232 23.3736 8.8542 23.3736H5.5806C5.3325 23.3735 5.08878 23.3082 4.87392 23.1841C4.65907 23.06 4.48065 22.8816 4.3566 22.6668L0.267004 15.5832C0.142987 15.3684 0.0776978 15.1247 0.0776978 14.8767C0.0776978 14.6286 0.142987 14.385 0.267004 14.1702L2.3118 10.6284Z" fill="#004E5F"/>
<path fill-rule="evenodd" clip-rule="evenodd" d="M17.0226 4.96376H7.212L9.2568 8.50556C9.5088 8.94296 9.5088 9.48176 9.2568 9.91856L7.212 13.4604L2.7138 5.67056C2.58973 5.45567 2.52441 5.2119 2.52441 4.96376C2.52441 4.71562 2.58973 4.47185 2.7138 4.25696L4.3506 1.42196C4.47468 1.20717 4.65312 1.02882 4.86798 0.904859C5.08284 0.780894 5.32654 0.715675 5.5746 0.715759H13.7544C14.259 0.715759 14.7252 0.984559 14.9784 1.42196L17.0226 4.96376Z" fill="#00B4AA"/>
<path fill-rule="evenodd" clip-rule="evenodd" d="M14.5764 20.541L19.482 12.0444H15.3924C15.1443 12.0444 14.9005 11.9791 14.6857 11.855C14.4708 11.7309 14.2924 11.5525 14.1684 11.3376L12.1236 7.79578H21.1188C21.624 7.79578 22.0908 8.06578 22.3428 8.50258L23.9796 11.3376C24.1038 11.5524 24.1692 11.7962 24.1692 12.0444C24.1692 12.2925 24.1038 12.5363 23.9796 12.7512L19.89 19.8348C19.7659 20.0496 19.5875 20.2279 19.3726 20.3519C19.1578 20.4758 18.9141 20.5411 18.666 20.541H14.5764Z" fill="#00B4AA"/>
<path fill-rule="evenodd" clip-rule="evenodd" d="M34.881 18.2148H32.8458L29.7258 9.72601H31.482C31.8996 9.72601 32.268 9.99601 32.3946 10.3938L34.881 18.2148Z" fill="#004E5F"/>
<path fill-rule="evenodd" clip-rule="evenodd" d="M33.1982 18.2148H35.2333L38.3531 9.7262H35.8965L33.1982 18.2148Z" fill="#004E5F"/>
<path fill-rule="evenodd" clip-rule="evenodd" d="M41.1564 12.9161H45.126C45.0198 11.9237 44.2578 11.1083 43.1406 11.1083C41.9718 11.1083 41.2446 11.9771 41.1564 12.9161ZM47.4828 13.9085C47.4828 14.1035 47.4828 14.3165 47.4468 14.5463H41.1396C41.1396 15.7163 42.132 16.7261 43.3368 16.7261C44.1162 16.7261 44.6658 16.3901 45.0378 15.8405H47.3598C46.8102 17.2757 45.5514 18.5165 43.3188 18.5165C40.785 18.5165 38.8002 16.6733 38.8002 13.9085C38.8002 11.4809 40.395 9.44275 43.1592 9.44275C45.9594 9.44275 47.4834 11.5343 47.4834 13.9085H47.4828ZM51.5178 11.0375C51.9792 10.2047 52.9176 9.47815 54.0516 9.47815C54.3888 9.47815 54.6012 9.49615 54.8316 9.54895V11.7821C54.4577 11.7118 54.0781 11.6763 53.6976 11.6759C52.2792 11.6759 51.5706 12.5621 51.5706 14.0855V18.2147H49.1784V9.72655H51.5178V11.0375ZM56.5284 18.2147H58.9206V9.72595H56.5284V18.2147ZM56.3322 5.84995L58.8252 5.50855L58.938 6.33295C58.9903 6.715 58.8887 7.10218 58.6555 7.40934C58.4224 7.7165 58.0768 7.91851 57.6948 7.97095L56.6418 8.11495L56.3322 5.84995V5.84995ZM64.2312 18.2147H61.821V11.7467H60.6162V9.72595H61.821V8.43295C61.821 6.43015 62.8842 5.34955 64.8696 5.34955C65.4186 5.34955 65.9502 5.43775 66.3396 5.54395V7.51135C66.0036 7.42255 65.7024 7.36975 65.3826 7.36975C64.533 7.36975 64.2312 7.82995 64.2312 8.59195V9.72595H67.4208V8.43295C67.4208 6.43015 68.484 5.34955 70.4514 5.34955C71.0004 5.34955 71.5326 5.43775 71.922 5.54395V7.51135C71.586 7.42255 71.2848 7.36975 70.9656 7.36975C70.1154 7.36975 69.8136 7.82995 69.8136 8.59195V9.72595H71.6568V11.7467H69.8136V18.2147H67.4208V11.7467H64.2312V18.2147V18.2147Z" fill="#004E5F"/>
</svg>
