<svg width="100" height="19" viewBox="0 0 100 19" fill="none" xmlns="http://www.w3.org/2000/svg">
<path d="M97.2372 5.47471C97.7557 5.46534 98.2699 5.56869 98.7445 5.77763C99.1875 5.9814 99.5791 6.28197 99.8905 6.65719L99 7.66449C98.7626 7.42635 98.4828 7.23451 98.1752 7.09879C97.87 6.96609 97.5408 6.89776 97.208 6.89806C96.947 6.88806 96.6882 6.94992 96.4598 7.0769C96.3643 7.13317 96.2861 7.21475 96.2339 7.31263C96.1817 7.41052 96.1576 7.52092 96.1642 7.63164C96.1612 7.72897 96.1823 7.82555 96.2256 7.91277C96.2689 8 96.3331 8.07518 96.4124 8.13164C96.6558 8.29714 96.918 8.43312 97.1934 8.53675L97.9233 8.83237C98.5023 9.04999 99.0366 9.37157 99.5 9.78128C99.6721 9.96035 99.8054 10.1731 99.8914 10.4061C99.9774 10.6391 100.014 10.8873 100 11.1353C100.008 11.4868 99.9303 11.835 99.7737 12.1499C99.6257 12.4365 99.4149 12.6861 99.1569 12.8798C98.8855 13.0832 98.5786 13.2342 98.2518 13.3251C97.8957 13.4261 97.5271 13.4764 97.1569 13.4747C96.5619 13.4887 95.972 13.3618 95.4354 13.1043C94.8988 12.8467 94.4307 12.4659 94.0693 11.993L94.9927 10.9492C95.2848 11.2604 95.6189 11.5295 95.9854 11.7484C96.3439 11.9536 96.7512 12.0583 97.1642 12.0513C97.4639 12.0592 97.7602 11.986 98.0219 11.8397C98.1371 11.7769 98.2324 11.6831 98.2969 11.5689C98.3614 11.4547 98.3926 11.3247 98.3868 11.1937C98.3922 11.0811 98.3676 10.9692 98.3157 10.8692C98.2638 10.7692 98.1863 10.6847 98.0912 10.6243C97.8493 10.4784 97.5939 10.3561 97.3285 10.2594L96.5474 9.93091C96.2599 9.81789 95.9807 9.68497 95.7117 9.5331C95.4826 9.40477 95.2725 9.24507 95.0876 9.05865C94.9035 8.88241 94.7584 8.66958 94.6616 8.43386C94.5648 8.19814 94.5185 7.94476 94.5255 7.69003C94.5184 7.37535 94.5854 7.0634 94.7211 6.77937C94.8567 6.49535 95.0573 6.24721 95.3066 6.055C95.563 5.85985 95.854 5.71497 96.1642 5.62799C96.5125 5.52467 96.874 5.47302 97.2372 5.47471Z" fill="#282844"/>
<path d="M93.4307 10.0915C93.4372 10.5712 93.3492 11.0474 93.1715 11.493C93.0109 11.8912 92.7727 12.2534 92.4708 12.5587C92.1694 12.8583 91.8073 13.0898 91.4088 13.2375C90.5544 13.5497 89.6171 13.5497 88.7628 13.2375C88.3656 13.0872 88.0039 12.8561 87.7007 12.5587C87.3949 12.2552 87.154 11.8926 86.9927 11.493C86.8163 11.0471 86.7295 10.5709 86.7372 10.0915V5.6499H88.3759V10.2192C88.3639 10.4554 88.4023 10.6915 88.4885 10.9117C88.5747 11.1319 88.7068 11.3313 88.8759 11.4966C89.2039 11.806 89.6405 11.9738 90.0912 11.9638C90.321 11.9729 90.55 11.9337 90.7636 11.8487C90.9772 11.7638 91.1706 11.6349 91.3313 11.4704C91.4919 11.306 91.6163 11.1097 91.6963 10.8941C91.7763 10.6786 91.8101 10.4487 91.7956 10.2192V5.6499H93.4307V10.0915Z" fill="#282844"/>
<path d="M85.4015 13.2994H83.7591V1.62061H85.4015V13.2994Z" fill="#282844"/>
<path d="M79.0474 5.47463C79.5655 5.4694 80.0789 5.57258 80.5547 5.77755C81.0079 5.97246 81.4156 6.25957 81.7518 6.62061C82.0903 6.98788 82.3554 7.41651 82.5328 7.88338C82.7239 8.38811 82.8192 8.92403 82.8139 9.46368C82.8192 10.0069 82.7239 10.5464 82.5328 11.0549C82.3582 11.5254 82.0929 11.9569 81.7518 12.325C81.4067 12.6911 80.9896 12.9819 80.5267 13.1791C80.0638 13.3763 79.5652 13.4757 79.062 13.471C78.5614 13.4769 78.0648 13.3813 77.6022 13.19C77.1766 13.0132 76.8007 12.7351 76.5073 12.3797V16.106H74.989V5.64981H76.3832V6.7447C76.668 6.33688 77.0559 6.01195 77.5073 5.80309C77.9899 5.58042 78.516 5.46821 79.0474 5.47463ZM78.781 6.97098C78.4959 6.97203 78.2131 7.02267 77.9452 7.12061C77.6738 7.22056 77.4255 7.37451 77.2153 7.57317C76.9873 7.79024 76.807 8.05253 76.6861 8.34324C76.5417 8.69999 76.4722 9.08259 76.4817 9.46733C76.4722 9.84987 76.5379 10.2306 76.6752 10.5878C76.7929 10.8805 76.9707 11.1453 77.1971 11.3651C77.4056 11.5677 77.6542 11.7244 77.927 11.825C78.1997 11.9237 78.4874 11.9744 78.7774 11.9746C79.0904 11.9767 79.4007 11.9158 79.6898 11.7958C79.971 11.6793 80.2256 11.5067 80.4379 11.2885C80.6563 11.0623 80.8264 10.7941 80.9379 10.5002C81.1769 9.84111 81.1769 9.11909 80.9379 8.46003C80.8299 8.16554 80.665 7.8952 80.4525 7.66441C80.2458 7.44616 79.9977 7.27123 79.7226 7.14981C79.426 7.02511 79.1064 6.96419 78.7847 6.97098H78.781Z" fill="#282844"/>
<path d="M72.292 5.64975C72.3965 5.64344 72.5013 5.64344 72.6058 5.64975C72.6848 5.65963 72.7629 5.6755 72.8394 5.69719V6.75559H72.4014C72.0959 6.75501 71.7925 6.80559 71.5036 6.90522C71.2241 6.99936 70.9643 7.14411 70.7372 7.33223C70.5114 7.52287 70.3285 7.75921 70.2007 8.02566C70.0595 8.32557 69.9895 8.65408 69.9963 8.98552V13.2994H68.7956V5.71179H69.9197V6.80668C70.1918 6.43935 70.5504 6.14477 70.9635 5.94902C71.3781 5.75045 71.8322 5.64815 72.292 5.64975Z" fill="#282844"/>
<path d="M64.1642 5.54037C64.626 5.53692 65.0842 5.62114 65.5146 5.78855C65.9221 5.94781 66.2942 6.18593 66.6095 6.48928C66.9254 6.80022 67.1739 7.17293 67.3394 7.58417C67.5206 8.02636 67.6112 8.50046 67.6058 8.97833C67.6066 9.16375 67.5956 9.34904 67.573 9.53307C67.5607 9.65601 67.54 9.77795 67.5109 9.89803H61.5292C61.5635 10.2578 61.6611 10.6087 61.8175 10.9345C61.9634 11.2349 62.1676 11.5031 62.4182 11.7237C62.6689 11.9443 62.9609 12.1127 63.2773 12.2192C63.6129 12.3359 63.9659 12.3939 64.3211 12.3907C64.7691 12.3998 65.2128 12.3035 65.6168 12.1097C65.9967 11.9231 66.3442 11.6766 66.646 11.3798L67.3467 12.19C66.9708 12.5971 66.5181 12.9258 66.0146 13.1572C65.4789 13.4027 64.8958 13.5273 64.3065 13.5221C63.7613 13.5277 63.2204 13.4247 62.7153 13.2192C62.2403 13.0251 61.8085 12.7385 61.4452 12.3761C61.0764 12.0071 60.785 11.5681 60.5882 11.0849C60.3914 10.6017 60.2932 10.084 60.2992 9.56227C60.2952 9.03086 60.3956 8.50384 60.5949 8.01117C60.785 7.53969 61.0665 7.11051 61.4233 6.7484C61.7655 6.37095 62.1768 6.06248 62.635 5.83964C63.1179 5.63313 63.6391 5.53113 64.1642 5.54037ZM64.1314 6.63526C63.8204 6.6337 63.5115 6.68682 63.219 6.7922C62.9383 6.89238 62.6786 7.04331 62.4525 7.23745C62.2256 7.43345 62.0352 7.66824 61.8905 7.93088C61.7368 8.20749 61.6284 8.50689 61.5693 8.81774H66.3759C66.3832 8.49642 66.3196 8.17744 66.1898 7.88344C66.0724 7.62137 65.9037 7.38555 65.6934 7.19001C65.488 7.00201 65.2456 6.85904 64.9817 6.7703C64.7091 6.67767 64.423 6.63081 64.135 6.63161L64.1314 6.63526Z" fill="#282844"/>
<path d="M58.5328 1.9382C58.6489 1.93751 58.7639 1.96008 58.8711 2.00459C58.9783 2.04909 59.0755 2.11463 59.1569 2.19732C59.2403 2.27736 59.3066 2.37342 59.3519 2.47972C59.3972 2.58602 59.4205 2.70038 59.4205 2.81594C59.4205 2.93149 59.3972 3.04585 59.3519 3.15216C59.3066 3.25846 59.2403 3.35451 59.1569 3.43455C58.9897 3.59623 58.7654 3.68541 58.5328 3.68273C58.2956 3.68729 58.0661 3.59812 57.8941 3.43455C57.8078 3.35552 57.7394 3.25895 57.6934 3.15131C57.6475 3.04368 57.6251 2.92747 57.6277 2.81046C57.6261 2.69414 57.6489 2.57877 57.6948 2.47187C57.7408 2.36497 57.8087 2.26894 57.8941 2.19003C57.9785 2.10771 58.0785 2.04304 58.1881 1.9998C58.2978 1.95657 58.415 1.93562 58.5328 1.9382ZM59.1241 13.2995H57.9233V5.71192H59.1241V13.2995Z" fill="#282844"/>
<path d="M56.2263 13.2994H55.0255V1.62061H56.2263V13.2994Z" fill="#282844"/>
<path d="M50.0949 5.54044C50.6129 5.53522 51.1264 5.6384 51.6022 5.84336C52.0541 6.03871 52.4605 6.32579 52.7956 6.68642C53.1329 7.0518 53.398 7.47781 53.5766 7.9419C53.7674 8.43909 53.8627 8.96779 53.8576 9.50029C53.8623 10.0351 53.767 10.5662 53.5766 11.066C53.3987 11.5343 53.1309 11.9632 52.7883 12.3288C52.4432 12.6949 52.0261 12.9857 51.5632 13.1829C51.1003 13.3801 50.6016 13.4795 50.0985 13.4747C49.5503 13.4772 49.0078 13.3627 48.5073 13.139C48.0321 12.9346 47.6183 12.6101 47.3065 12.1974V16.1061H46.1058V5.71197H47.2299V6.9346C47.537 6.49305 47.9532 6.13849 48.4379 5.9054C48.9545 5.65695 49.5217 5.532 50.0949 5.54044ZM49.9379 6.63533C49.6062 6.63543 49.2769 6.69093 48.9635 6.79956C48.6466 6.90851 48.3566 7.08397 48.1131 7.31416C47.8519 7.56387 47.6467 7.86614 47.5109 8.20102C47.3504 8.60981 47.2734 9.04665 47.2846 9.4857C47.2745 9.92703 47.3514 10.366 47.5109 10.7777C47.6442 11.1181 47.8497 11.4256 48.1131 11.6791C48.3566 11.9093 48.6466 12.0848 48.9635 12.1937C49.2769 12.3024 49.6062 12.3579 49.9379 12.358C50.3051 12.3613 50.6691 12.2893 51.0073 12.1463C51.3288 12.0106 51.6185 11.8092 51.8576 11.555C52.102 11.2927 52.2929 10.9853 52.4197 10.6499C52.6907 9.90997 52.6907 9.09791 52.4197 8.35796C52.2933 8.02406 52.1051 7.71699 51.8649 7.45285C51.6265 7.19602 51.3368 6.99211 51.0146 6.85431C50.674 6.71096 50.3074 6.64011 49.9379 6.64628V6.63533Z" fill="#282844"/>
<path d="M41.1679 5.54044C41.6859 5.53522 42.1993 5.6384 42.6751 5.84336C43.127 6.03871 43.5334 6.32579 43.8686 6.68642C44.2059 7.0518 44.4709 7.47781 44.6496 7.9419C44.8404 8.43909 44.9357 8.96779 44.9306 9.50029C44.9353 10.0351 44.84 10.5662 44.6496 11.066C44.4716 11.5343 44.2038 11.9632 43.8613 12.3288C43.5161 12.6949 43.099 12.9857 42.6362 13.1829C42.1733 13.3801 41.6746 13.4795 41.1715 13.4747C40.6233 13.4772 40.0808 13.3627 39.5803 13.139C39.1051 12.9346 38.6913 12.6101 38.3795 12.1974V16.1061H37.1788V5.71197H38.3029V6.9346C38.61 6.49305 39.0262 6.13849 39.5109 5.9054C40.0275 5.65695 40.5947 5.532 41.1679 5.54044ZM41.0109 6.63533C40.6792 6.63543 40.3499 6.69093 40.0365 6.79956C39.7196 6.90851 39.4296 7.08397 39.1861 7.31416C38.9249 7.56387 38.7197 7.86614 38.5839 8.20102C38.4234 8.60981 38.3464 9.04665 38.3576 9.4857C38.3475 9.92703 38.4244 10.366 38.5839 10.7777C38.7183 11.1184 38.925 11.426 39.1897 11.6791C39.4333 11.9093 39.7232 12.0848 40.0401 12.1937C40.3535 12.3024 40.6829 12.3579 41.0146 12.358C41.3817 12.3613 41.7457 12.2893 42.0839 12.1463C42.4055 12.0106 42.6951 11.8092 42.9343 11.555C43.1786 11.2927 43.3696 10.9853 43.4963 10.6499C43.7673 9.90997 43.7673 9.09791 43.4963 8.35796C43.3699 8.02406 43.1817 7.71699 42.9416 7.45285C42.7031 7.19602 42.4134 6.99211 42.0912 6.85431C41.7507 6.71096 41.384 6.64011 41.0146 6.64628L41.0109 6.63533Z" fill="#282844"/>
<path d="M35.5693 10.2776C35.5762 10.7307 35.4944 11.1808 35.3285 11.6024C35.1819 11.9771 34.9584 12.3169 34.6724 12.5998C34.3863 12.8826 34.0441 13.1024 33.6679 13.2448C32.8743 13.5456 31.998 13.5456 31.2044 13.2448C30.8295 13.101 30.487 12.8839 30.1971 12.6061C29.905 12.3226 29.6761 11.9806 29.5255 11.6024C29.3596 11.1808 29.2778 10.7307 29.2847 10.2776V5.71191H30.4708V10.3542C30.4663 10.6429 30.5197 10.9296 30.6277 11.1973C30.7211 11.4317 30.8621 11.6442 31.0417 11.8213C31.2214 11.9985 31.4358 12.1364 31.6715 12.2265C31.916 12.3205 32.176 12.3675 32.4379 12.3652C32.6963 12.3677 32.9528 12.3206 33.1934 12.2265C33.4232 12.1357 33.6327 12.0005 33.8102 11.8287C33.9913 11.6502 34.1319 11.4349 34.2226 11.1973C34.3255 10.9283 34.3763 10.6422 34.3722 10.3542V5.71191H35.573L35.5693 10.2776Z" fill="#282844"/>
<path d="M25.5219 5.54024C26.0279 5.52957 26.529 5.6423 26.9817 5.86871C27.3951 6.08489 27.7611 6.38145 28.0584 6.74097L27.3284 7.4709C27.0906 7.21197 26.8042 7.00239 26.4854 6.85411C26.1681 6.7046 25.8216 6.62732 25.4708 6.62784C25.1495 6.61605 24.832 6.69988 24.5584 6.86871C24.4407 6.94424 24.345 7.04946 24.2809 7.17376C24.2168 7.29807 24.1867 7.43706 24.1934 7.57674C24.1886 7.69587 24.213 7.81438 24.2645 7.9219C24.316 8.02942 24.3931 8.12268 24.489 8.19353C24.7808 8.39384 25.0957 8.55806 25.427 8.68258L26.1277 8.9782C26.6911 9.19195 27.2096 9.50879 27.6569 9.91251C27.8251 10.0853 27.9562 10.2907 28.0422 10.516C28.1282 10.7413 28.1672 10.9818 28.1569 11.2227C28.1681 11.5457 28.1001 11.8666 27.9589 12.1573C27.8177 12.448 27.6075 12.6997 27.3467 12.8906C27.0887 13.0815 26.7981 13.2237 26.489 13.3103C26.164 13.4038 25.8273 13.4505 25.489 13.449C24.8739 13.472 24.2639 13.3295 23.7226 13.0366C23.2535 12.771 22.8407 12.4164 22.5073 11.9928L23.2883 11.1972C23.5737 11.5205 23.9 11.8051 24.2591 12.0439C24.6225 12.2725 25.0452 12.3893 25.4744 12.3797C25.8354 12.3891 26.191 12.2913 26.4963 12.0986C26.6324 12.0163 26.744 11.8992 26.8197 11.7593C26.8954 11.6195 26.9324 11.4619 26.927 11.303C26.9351 11.1601 26.9056 11.0175 26.8416 10.8895C26.7776 10.7615 26.6812 10.6524 26.562 10.5731C26.2621 10.3843 25.9458 10.2231 25.6168 10.0913L24.8686 9.78112C24.5888 9.65703 24.3309 9.53538 24.0949 9.41615C23.8743 9.29658 23.6716 9.14671 23.4927 8.9709C23.3361 8.80867 23.2122 8.61786 23.1277 8.40886C23.0344 8.17711 22.9897 7.92867 22.9963 7.67893C22.9906 7.36283 23.0606 7.04996 23.2007 6.76652C23.3202 6.50212 23.4988 6.26865 23.7226 6.08404C23.9689 5.90151 24.2457 5.76433 24.5401 5.67893C24.8589 5.5851 25.1896 5.53838 25.5219 5.54024Z" fill="#282844"/>
<path d="M9.85401 18.9783H9.83211C7.58029 18.9783 6.18248 17.5695 6.18248 15.3286C6.18248 15.135 6.25938 14.9494 6.39627 14.8125C6.53316 14.6756 6.71882 14.5987 6.91241 14.5987C7.106 14.5987 7.29166 14.6756 7.42854 14.8125C7.56543 14.9494 7.64233 15.135 7.64233 15.3286C7.64233 16.7885 8.37226 17.5184 9.83211 17.5184C10.4317 17.553 11.0218 17.3572 11.4817 16.971C11.6743 16.7459 11.8202 16.4848 11.9111 16.2029C12.0019 15.9209 12.0359 15.6238 12.0109 15.3286V12.4089C12.0109 11.441 12.3955 10.5127 13.0799 9.82823C13.7643 9.14379 14.6926 8.75928 15.6606 8.75928H16.0255C16.2191 8.75928 16.4048 8.83618 16.5417 8.97307C16.6786 9.10996 16.7555 9.29562 16.7555 9.4892C16.7555 9.68279 16.6786 9.86845 16.5417 10.0053C16.4048 10.1422 16.2191 10.2191 16.0255 10.2191H15.6606C15.0798 10.2191 14.5228 10.4498 14.1122 10.8605C13.7015 11.2712 13.4708 11.8281 13.4708 12.4089V15.3286C13.4981 15.817 13.4261 16.3058 13.2593 16.7656C13.0924 17.2254 12.8341 17.6466 12.5 18.0038C12.1449 18.3326 11.7284 18.5879 11.2743 18.7552C10.8202 18.9224 10.3375 18.9982 9.85401 18.9783Z" fill="#0095FF"/>
<path d="M15.6934 13.1387H15.646C15.4524 13.1387 15.2667 13.0618 15.1298 12.9249C14.993 12.788 14.916 12.6023 14.916 12.4087C14.916 12.2151 14.993 12.0295 15.1298 11.8926C15.2667 11.7557 15.4524 11.6788 15.646 11.6788H15.6934C17.5401 11.6788 18.2007 10.4963 18.2044 9.48902C18.2109 9.21 18.162 8.93246 18.0605 8.67247C17.959 8.41248 17.807 8.17522 17.6131 7.97442C17.3538 7.74041 17.0505 7.56023 16.721 7.44432C16.3914 7.32842 16.0422 7.27911 15.6934 7.29924H12.7409C11.7729 7.29924 10.8446 6.91473 10.1602 6.23029C9.47575 5.54585 9.09123 4.61755 9.09123 3.6496C9.09123 3.45602 9.16814 3.27036 9.30502 3.13347C9.44191 2.99658 9.62757 2.91968 9.82116 2.91968C10.0147 2.91968 10.2004 2.99658 10.3373 3.13347C10.4742 3.27036 10.5511 3.45602 10.5511 3.6496C10.5511 4.23037 10.7818 4.78735 11.1925 5.19801C11.6031 5.60868 12.1601 5.83939 12.7409 5.83939H15.6934C16.2337 5.81597 16.7732 5.90076 17.2802 6.08879C17.7873 6.27681 18.2516 6.56427 18.646 6.93428C18.9767 7.27126 19.2371 7.67069 19.4119 8.1093C19.5867 8.54791 19.6725 9.01693 19.6642 9.48902C19.6752 11.2481 18.4306 13.1387 15.6934 13.1387Z" fill="#53B7FF"/>
<path d="M3.9708 10.219H3.64964C3.45605 10.219 3.27039 10.1421 3.1335 10.0052C2.99661 9.86834 2.91971 9.68268 2.91971 9.48909C2.91971 9.29551 2.99661 9.10985 3.1335 8.97296C3.27039 8.83607 3.45605 8.75917 3.64964 8.75917H3.96715C4.54792 8.75917 5.1049 8.52846 5.51556 8.11779C5.92623 7.70713 6.15693 7.15015 6.15693 6.56939V3.9672C6.13102 3.42667 6.21465 2.88647 6.4028 2.37909C6.59096 1.8717 6.87975 1.40759 7.25183 1.01464C7.58881 0.68391 7.98824 0.423549 8.42685 0.248732C8.86546 0.0739144 9.33448 -0.0118643 9.80657 -0.00360604C11.5657 -0.00360604 13.4562 1.24822 13.4562 3.96355C13.4562 4.15714 13.3793 4.3428 13.2424 4.47968C13.1055 4.61657 12.9199 4.69347 12.7263 4.69347C12.5327 4.69347 12.347 4.61657 12.2101 4.47968C12.0733 4.3428 11.9964 4.15714 11.9964 3.96355C11.9964 2.11683 10.8139 1.4599 9.80657 1.45625C9.24454 1.45165 8.70225 1.66333 8.29197 2.04749C8.05872 2.30647 7.87924 2.60922 7.76396 2.93814C7.64868 3.26707 7.5999 3.61561 7.62044 3.96355V6.56939C7.62044 7.04866 7.52604 7.52325 7.34263 7.96604C7.15922 8.40883 6.89038 8.81117 6.55148 9.15007C6.21258 9.48897 5.81025 9.7578 5.36746 9.94121C4.92466 10.1246 4.45008 10.219 3.9708 10.219Z" fill="#0095FF"/>
<path d="M9.81751 16.0583C9.62392 16.0583 9.43826 15.9814 9.30137 15.8445C9.16448 15.7077 9.08758 15.522 9.08758 15.3284C9.08758 14.7476 8.85687 14.1907 8.44621 13.78C8.03555 13.3693 7.47857 13.1386 6.8978 13.1386H3.97809C3.43756 13.1645 2.89737 13.0809 2.38998 12.8928C1.88259 12.7046 1.41848 12.4158 1.02554 12.0437C0.693323 11.7075 0.43151 11.3083 0.255417 10.8697C0.0793239 10.431 -0.00751216 9.96162 -9.99123e-06 9.48899C-9.99123e-06 7.73352 1.25181 5.83936 3.97079 5.83936C4.16438 5.83936 4.35004 5.91626 4.48693 6.05315C4.62382 6.19003 4.70072 6.37569 4.70072 6.56928C4.70072 6.76287 4.62382 6.94853 4.48693 7.08542C4.35004 7.22231 4.16438 7.29921 3.97079 7.29921C2.12408 7.29921 1.45984 8.48169 1.45984 9.48899C1.4531 9.76803 1.50189 10.0456 1.60339 10.3057C1.70489 10.5657 1.85707 10.8029 2.05108 11.0036C2.31045 11.2376 2.61369 11.4178 2.94323 11.5337C3.27277 11.6496 3.62205 11.6989 3.97079 11.6788H6.8905C7.85844 11.6788 8.78674 12.0633 9.47118 12.7477C10.1556 13.4322 10.5401 14.3605 10.5401 15.3284C10.5401 15.5207 10.4642 15.7053 10.3289 15.842C10.1936 15.9787 10.0098 16.0564 9.81751 16.0583Z" fill="#53B7FF"/>
</svg>
